<?xml version="1.0" encoding="UTF-8"?>
<!-- Created with Inkscape (http://www.inkscape.org/) -->
<svg width="683.21" height="935.38" version="1.1" viewBox="0 0 683.21 935.38" xmlns="http://www.w3.org/2000/svg">
 <g transform="translate(-173.85 -46.75)">
  <path d="m362.05 507.54-167.23 80.492s5e-3 16.488-0.46093 24.191c-0.87801 14.51-4.8398 38.17-0.53125 52.053 0.60258 1.9416 1.3233 3.5333 2.1445 4.9316 0.54557 0.92898 1.1134 1.6343 1.7031 2.2539v98.035l318.26 153.92 318.26-153.92v-99.324c0.73481-0.89962 1.4565-2.0281 2.127-3.2949 2.1589-4.0792 3.3086-8.2985 3.2207-10.924-0.59048-17.636-0.071-29.219-1.1426-47.773-0.3844-6.6558-2.0781-19.893-2.0781-19.893l-141.57-67.666z" fill="#972b4f" stroke="#972b4f" stroke-width="35" style="paint-order:stroke fill markers"/>
 </g>
 <g transform="translate(-173.85 -46.75)">
  <g fill-opacity="0" fill-rule="evenodd" opacity=".15" stroke-linejoin="bevel" stroke-width="5" style="paint-order:stroke fill markers">
   <path d="m2689.8-281.19v35.507l-251.37 658.89v-21.266z" points="2689.7638,-245.6781 2438.394,413.21106 2438.394,391.94461 2689.7638,-281.18529 " fill="#d7d7ff"/>
   <path d="m2236.3 450.39 202.09-58.446v21.266l-202.09 56.997z" points="2438.394,391.94461 2438.394,413.21106 2236.3008,470.20795 2236.3008,450.39075 " fill="#e9e9ff"/>
   <path d="m2339.7-114.61 350.05-166.57-251.37 673.13-202.09 58.446z" points="2689.7638,-281.18529 2438.394,391.94461 2236.3008,450.39075 2339.7151,-114.61349 " fill="#4d4d9f"/>
   <path d="m2339.7-114.61v31.643l-103.41 553.18v-19.817z" points="2339.7151,-82.970034 2236.3008,470.20795 2236.3008,450.39075 2339.7151,-114.61349 " fill="#353564"/>
   <path d="m2339.7-114.61 350.05-166.57v35.507l-350.05 162.71z" points="2689.7638,-281.18529 2689.7638,-245.6781 2339.7151,-82.970034 2339.7151,-114.61349 " fill="#8686bf"/>
   <path d="m2339.7-82.97 350.05-162.71-251.37 658.89-202.09 56.997z" points="2689.7638,-245.6781 2438.394,413.21106 2236.3008,470.20795 2339.7151,-82.970034 " fill="#afafde"/>
  </g>
  <g>
   <rect transform="matrix(.90024 .43539 0 1 0 0)" x="219.59" y="494.5" width="353.53" height="179.4" fill="#f5aebd" style="paint-order:stroke fill markers"/>
   <rect transform="matrix(-.90024 .43539 0 1 0 0)" x="-926.65" y="993.55" width="353.53" height="179.4" fill="#f5aebd" style="paint-order:stroke fill markers"/>
   <path d="m362.05 507.54-167.23 80.492 0.43826 3.1689 320.58 171.65 320.21-173.05 0.27856-1.5176-141.57-67.666z" fill="#f6fafb"/>
   <path d="m194.83 588.04s5e-3 16.488-0.46093 24.191c-0.87801 14.51-4.8392 38.169-0.53065 52.052 0.60258 1.9416 1.3233 3.5333 2.1445 4.9316 2.8964 4.932 6.1082 4.794 12.888 7.1278 5.4939 1.8911 14.824 2.1685 24.156 4.2949 7.5061 1.7103 15.877 4.7993 22.15 8.4238 9.2248 5.3294 16.935 12.369 24.256 20.447 8.5247 9.4071 15.659 20.039 26.814 25.467 12.991 6.3205 25.837 0.84896 39.586 5.2852 44.502 14.359 80.49 47.855 122.62 68.154 15.383 7.4126 47.221 19.46 47.398 19.527v-84.648z" fill="#eceae6"/>
   <path d="m836.33 588.29-320.49 155v84.648c5e-4 1.9e-4 0.0996 0.0391 0.0996 0.0391 29.329 2.5308 49.467-7.7732 64.076-20.225 15.177-12.935 24.383-28.189 31.578-33.846 3.665-2.8812 12.182-8.4627 19.201-10.314 10.04-2.6488 19.188-1.2852 25.156-4.2598 13.966-6.9608 19.782-20.928 33.752-27.881 17.954-8.9358 33.846-19.132 53.807-26.252 11.774-4.2001 26.789 2.3055 38.48-2.1191 13.534-5.1218 19.8-23.068 33.264-28.371 5.5635-2.1914 11.591-0.13427 16.957-2.7734 1.3903-0.68383 2.8438-2.6486 4.1172-5.0547 2.1589-4.0792 3.3077-8.2978 3.2198-10.923-0.59048-17.636-0.0701-29.22-1.1417-47.774-0.3844-6.6558-2.0781-19.893-2.0781-19.893z" fill="#e0dfd8"/>
  </g>
 </g>
 <g transform="translate(-173.85 -46.75)">
  <path d="m813.38 747.96c-2.6113-4e-3 -5.342 0.0121-8.1211 0.0508-5.5583 0.0774-11.308 0.24426-16.676 0.5254-8.1005 0.42422-13.078 5.3148-15.48 8.5703-2.4022 3.2555-3.3932 5.8981-4.1348 8.7676-0.50257 1.9447-0.66844 2.8353-1.3691 5.9453-0.63465 2.8168-1.5248 6.8035-2.5098 11.221-1.2868-1.2624-2.6332-2.4409-4.0391-3.5098-10.296-7.8281-22.673-11.056-34.949-11.197-0.0319-9e-5 -0.0638-9e-5 -0.0957 0-25.814-0.15738-46.142 14.726-60.982 34.031-0.54014-2.3212-1.2834-4.715-2.3281-7.1875-5.3198-12.59-15.309-22.929-30.645-26.023-2.0962-0.42292-4.1823-0.63653-6.207-0.67578-14.107-0.27358-23.901 6.3172-31.066 11.354-3.3774 2.374-6.2785 4.975-8.8496 7.6719-5.3737-13.448-16.542-23.005-30.287-27.51-7.3004-2.3928-14.46-3.2803-21.396-3.0938-20.809 0.5596-39.609 10.779-54.166 18.975-6.3468 3.5732-17.714 12.492-17.714 12.492s-3.0915-0.24148-10.624-0.673c-5.6283-0.32242-9.1593-0.34641-12.771-0.71732-7.225-0.74203-18.672-0.90553-27.338-0.625-12.25 0.39672-17.41 6.9416-20.854 14.367-0.65409 1.4105-1.3254 3.1809-1.9824 4.6562-1.4426-4.7959-4.228-9.9388-10.176-14.473-6.1261-4.6697-12.207-6.3033-17.68-6.5801-5.4725-0.27675-10.337 0.80356-14.033 1.5566-3.2559 0.66339-6.1786 1.6218-8.8262 2.7383-1.3367-1.6848-2.7617-3.0097-3.9512-4.0644-13.838-12.27-32.33-22.217-53.518-22.016-19.586 0.1861-41.541 6.6397-55.609 24.926-10.516 13.669-15.544 31.183-12.115 48.893 1.2167 6.2835 3.5496 11.513 6.2148 16.377-1.4318 0.0891-2.7042 0.2764-3.6445 0.48242-3.4204 0.74939-5.4251 1.7897-7.375 2.8379-3.8998 2.0964-7.1893 4.5548-10.582 7.416-6.7854 5.7225-13.444 11.599-17.914 22.002-6.7961 15.817-9.5743 37.142 3.2871 54.619 15.144 20.578 39.888 24.574 59.262 24.574 19.725 0 40.757-6.1809 56.547-19.426 7.4665 10.798 20.378 15.758 31.5 15.758 11.218 0 21.169-3.9555 29.297-9.3652 9.3877 7.7118 21.401 9.9609 32.344 8.041 13.014-2.2834 22.907-9.8311 29.908-18.363 3.4542-4.2092 6.254-8.792 8.8828-13.451 2.5169 1.767 5.1429 3.338 7.8516 4.6348 0.0412 0.0197 0.0819 0.0293 0.12305 0.0488-0.7507 0.91896-1.5652 2.0288-2.4961 4.0566-1.2706 2.7679-3.2341 8.8337 0.13086 15.691 3.349 6.825 9.1811 9.6877 13.172 10.91 3.9908 1.2225 7.2134 1.3214 10.291 1.1621 15.902-0.82299 30.232-7.3694 41.666-17.012 2.991 4.8707 7.2272 8.9519 12.885 12.574 12.334 7.8972 26.611 9.5608 40.152 5.8203 11.237-3.1039 19.199-9.6809 25.365-16.521 2.3131 3.8716 5.4779 7.0534 10.717 9.0957 6.8679 2.6774 7.6599 1.7263 10.893 1.9336 3.2327 0.20726 6.8065 0.2937 10.398 0.2793 3.5919-0.0144 7.1238-0.12424 10.398-0.40039 1.6373-0.13808 3.1791-0.29978 4.9766-0.63477 1.4904-0.27776 2.6952 0.25758 6.3398-1.9394 0.90515 0.5403 1.8816 1.0545 2.9922 1.5293 4.8768 2.0851 5.1434 1.4323 6.3867 1.5664 1.2434 0.13414 2.3501 0.20009 3.5332 0.25586 2.3662 0.11154 4.9527 0.15221 7.5117 0.15625 2.559 4e-3 5.0364-0.0312 7.1172-0.10156 1.0404-0.0352 1.9561-0.0748 2.9336-0.14844 0.48875-0.0368 0.96539-0.073 1.7422-0.17969 0.77679-0.10668-0.0353 1.4916 6.4531-2.1172 5.128-2.8521 11.033-10.543 12.178-16.936 0.95958-5.3576 2.216-12.158 3.3652-18.471 9.5324 16.801 19.288 33.049 28.475 48.047 3.8628 6.3068 8.629 8.2914 12.383 9.5449s7.0152 1.7239 11.305 1.2402c3.8278-0.43165 5.513-1.0214 8.5723-1.8223 3.0592-0.80087 6.5483-1.7918 10.016-2.8359s6.8781-2.1299 9.8359-3.1621c2.9578-1.0322 3.4834-0.27318 9.2578-4.166 6.4844-4.3714 7.6386-7.8665 9.1211-12.584 0.74127-2.3588 1.3788-5.0828 0.96094-9.0371-0.18587-1.7589-0.76523-3.93-1.7754-6.127 10.297-6.201 17.283-17.498 17.283-30.229 0-6.396-1.7718-12.426-4.832-17.635 1.9927-1.3343 4.3182-2.9147 5.7129-11.576 1.3054-8.1074 7.8743-29.906 15.111-49.51s16.898-40.026 18.324-42.07c3.1175-4.4689 9.6723-12.438 5.6738-25.793-1.5434-5.1548-4.1603-8.6183-7.5898-11.576-3.4296-2.9579-8.0588-5.6765-14.74-5.793-2.2993-0.04-4.7911-0.0628-7.4023-0.0664z" color="#000000" fill="#972b4f" style="-inkscape-stroke:none;paint-order:markers stroke fill"/>
 </g>
 <g transform="translate(-173.85 -46.75)">
  <path d="m630.66 810.06-34.358 94.311"/>
  <g fill="#fff">
   <path d="m290.4 820.48c0.73291 1.9552 0.80707 3.6956 2.7719 4.4024 2.5075 0.90207 5.7284-1.3392 8.1526-2.4458 7.832-3.5752 14.225-8.4938 20.218-14.675 1.3019-1.3426 3.3296-3.676 3.4241-5.5438 0.0886-1.7505-1.1344-3.4026-2.4458-4.5654-11.299-10.019-26.641-17.753-41.741-17.61-14.987 0.14241-32.765 6.2194-41.904 18.099-8.7938 11.43-11.546 20.734-8.8048 34.893 3.3277 17.186 30.125 41.051 33.1 61.144 1.7849 12.059 1.2749 19.42-7.1743 28.208-7.8909 8.207-23.706 9.6968-34.241 5.3807-7.3669-3.0181-14.834-8.848-14.349-16.794 0.53531-8.7582 6.9704-12.371 14.349-17.12 3.6424-2.3446 17.512-6.1717 14.349-9.1309l-15.164-14.186c-2.8474-2.6637-21.139 12.228-25.273 21.849-5.281 12.291-6.6245 26.565 1.3044 37.339 9.6173 13.069 28.939 17.447 45.165 17.447 20.966 0 46.261-10.961 56.579-28.534 7.7062-13.125 4.2491-27.115-0.48915-41.578-5.7751-17.628-18.678-31.413-30.328-45.002-4.9142-5.7326-13.529-16.118-11.251-23.316 2.1658-6.8439 6.5186-13.596 13.696-13.696 5.7974-0.0807 13.155 3.8356 16.142 8.8048 2.6347 4.3826 2.1184 11.843 3.9132 16.631z"/>
   <path d="m300.02 841.67c-0.96275 0.94017-1.7377 1.5112-1.8343 2.8534-0.2634 3.6601 2.0748 14.329 5.5438 16.468 1.3026 0.8035 2.3434-0.18134 3.4648-1.2229 11.132-10.338 24.42-29.632 33.1-34.893 1.0034-0.60815 2.8476-0.20659 3.4241 0.81526 0.70102 1.2425-1.3583 4.6563-1.9566 5.9514-9.2583 20.039-24.419 44.595-29.92 70.438-2.0708 9.7282-4.2146 21.255-0.3261 30.409 3.2092 7.5552 10.799 11.006 18.669 11.006 8.9455 0 16.591-3.5298 23.153-8.8863 5.1901-4.2362 10.289-12.407 11.923-12.005 2.0406 0.50187 0.0739 10.261 3.5056 13.859 5.0653 5.3107 12.806 7.2401 20.035 5.9718 7.6582-1.3437 14.471-6.2184 19.403-12.229 5.3104-6.4712 15.231-25.516 15.653-27.556 0.542-2.621-3.402-3.9942-5.9514-3.1795-4.3391 1.3866-10.92 20.476-19.892 28.697-1.6474 1.5094-4.6381 4.7273-6.6851 3.8317-1.6937-0.74103-2.6173-3.4724-1.8215-5.1411 14.652-30.725 37.592-90.775 47.186-116.03 0.69741-1.8362 2.443-6.2399 0.48915-6.4405-4.8832-0.50152-17.377-0.78894-24.983-0.54271-2.3251 0.0753-4.5651 2.1289-5.5438 4.2393-11.818 25.486-25.2 65.656-39.104 98.694-3.0115 7.1557-8.9705 11.819-15.152 16.516-2.8667 2.1781-7.3855 5.6788-10.264 5.6788-3.306 0-4.9686-3.8295-6.0213-6.9635-1.8409-5.4802 1.7482-11.335 3.3484-16.89 7.8736-27.335 22.815-51.896 31.648-78.937 0.88421-2.7068 2.1538-5.4749 1.9566-8.3156-0.32288-4.6519-1.3461-10.217-5.0546-13.044-4.6924-3.5769-11.828-2.9715-17.61-1.7936-7.1746 1.4618-13.274 6.3542-19.24 10.598-11.384 8.0976-21.148 18.285-31.143 28.045z"/>
   <path d="m543.54 800.37c0-4.6174-3.4498-8.5246-8.581-8.5246-5.1296 0-10.192 1.7292-15.689 4.5862-20.817 10.819-39.558 26.884-49.527 48.342-10.219 21.998-16.348 44.49-0.57647 54.783 3.7813 2.4676 9.8212 6.2161 14.198 5.5703 2.9435-0.43435 5.0331-4.1139 6.5298-6.8188 4.2236-7.633 6.5048-13.611 11.086-21.035 0.82841-1.3426 2.1787-2.3986 3.5893-3.1048 2.5872-1.2952 22.734-1.1063 25.493 0.79307 1.5942 1.0974 0.67534 2.9426-0.28414 4.6234-9.1196 15.975-20.719 33.645-32.704 47.493-9.5766 11.065-23.684 19.052-38.298 19.809-3.1147 0.16121-5.9658-0.50623-6.8478-2.3035-0.71205-1.4511 6.1803-6.1168 7.5783-6.9283 8.5596-4.9683 10.226-6.9427 16.947-16.218 0.65084-0.89819 3.1689-5.614 3.1689-5.614-2.3481 0.60756-5.9314 1.5953-7.4925 1.8669-9.8208 1.7087-17.123 3.3243-26.114-0.98001-7.7812-3.7251-11.917-7.36-16.184-14.799-3.6724-6.4023-5.682-16.572-5.3346-24.197 0.37341-8.1964 3.8666-20.345 7.909-27.172 14.837-25.058 31.618-45.545 56.253-59.414 18.511-10.421 41.339-21.118 61.526-14.502 10.221 3.35 19.752 13.573 21.33 24.212 2.175 14.664-8.2283 29.728-18.447 40.469-8.59 9.0283-20.747 17.487-33.205 17.179-2.4447-0.0605-5.7445-1.3179-6.3412-3.6894-0.7704-3.0618 2.6439-5.9225 4.9577-8.0706 17.925-16.642 25.061-30.12 25.061-46.356z"/>
   <path d="m625.5 785.98c-7.2444-0.14049-14.696 3.9788-20.664 8.1738-8.4659 5.9506-13.953 15.487-19.139 24.441-11.266 19.454-25.365 62.49-25.365 62.49s-10.889 3.3437-15.738 6.2266c-9.944 5.9117-20.65 12.351-26.633 22.252-3.5377 5.8548-4.8985 15.216-4.4043 19.816 0.58125 5.4099 4.9132 12.482 10.111 15.811 7.3877 4.73 17.601 6.025 26.057 3.6895 9.4303-2.6048 17.04-10.56 22.828-18.447 7.8202-10.655 14.527-36.895 14.527-36.895l19.75-1.5606s-8.7403 35.564-12.658 44.854c-0.78924 1.8713 0.70228 4.428 2.6504 5.1875 3.5004 1.3646 26.514 1.4436 28.883-0.28711 2.2498-1.6436 5.2571-6.3741 4.7266-9.1094-0.42443-2.1882-4.0352-4.4375-4.0352-4.4375l7.377-38.334 14.645-1.1562 2.9961-22.598-13.496 2.2207s5.6734-24.562 7.041-36.578c1.123-9.8662 5.4782-20.599 1.6133-29.746-3.0958-7.3266-10.19-14.107-17.986-15.68-1.0216-0.20611-2.051-0.31392-3.0859-0.33398zm-2.9668 15.379c0.21186 0 0.42743 0.0159 0.64453 0.0469s0.43675 0.0771 0.65625 0.13672c0.21949 0.0596 0.43914 0.13296 0.6582 0.21875 0.21906 0.0858 0.43655 0.18535 0.65234 0.29492s0.42899 0.23038 0.63868 0.36133c0.20968 0.13094 0.41644 0.27197 0.61718 0.42187 0.20075 0.14991 0.39697 0.30815 0.58594 0.47461s0.37057 0.34087 0.54492 0.52148c0.17436 0.18062 0.34114 0.3682 0.49805 0.56055s0.30477 0.39011 0.44141 0.5918c0.13663 0.20168 0.26148 0.40662 0.375 0.61523 0.11351 0.20861 0.21516 0.41968 0.30273 0.63282 0.0876 0.21312 0.16192 0.42733 0.2207 0.64257 0.0588 0.21524 0.10175 0.43155 0.12891 0.64649 0.0272 0.21494 0.0385 0.42839 0.0312 0.64062-7e-3 0.21224-0.0335 0.42374-0.0781 0.63086-0.35378 1.6436-0.72969 3.33-1.125 5.0488-0.39529 1.7188-0.80996 3.4699-1.2383 5.2402-0.42832 1.7703-0.87134 3.5613-1.3242 5.3594-0.45285 1.7981-0.91584 3.6041-1.3848 5.4062-0.93785 3.6043-1.8984 7.1918-2.8496 10.67s-1.8924 6.8457-2.7891 10.008c-0.89668 3.1621-1.7491 6.1191-2.5234 8.7754-0.7743 2.6563-1.4706 5.012-2.0547 6.9727-1.1681 3.9213-1.8887 6.2617-1.8887 6.2617l-19.979 3.2871s3.2237-10.702 7.1602-23.949c1.9682-6.6236 4.1147-13.883 6.125-20.76 1.0052-3.4382 1.9751-6.7794 2.873-9.8984 0.89794-3.119 1.7233-6.0156 2.4355-8.5606 0.10433-0.37274 0.21671-0.74271 0.3379-1.1094 0.12118-0.36668 0.25052-0.72958 0.38867-1.0879 0.13815-0.35831 0.28621-0.71093 0.4414-1.0586 0.1552-0.34766 0.31791-0.69068 0.49024-1.0254 0.17232-0.33471 0.35343-0.66102 0.54297-0.98047s0.38691-0.63169 0.59375-0.93359 0.42421-0.5949 0.64843-0.87696c0.22423-0.28205 0.45558-0.55259 0.69727-0.8125 0.24169-0.2599 0.4927-0.50868 0.75195-0.74414s0.5278-0.45729 0.80469-0.66601 0.56281-0.40431 0.85742-0.58399c0.29462-0.17967 0.59774-0.34385 0.91016-0.49218 0.31242-0.14834 0.63453-0.27983 0.96484-0.39454 0.33032-0.11468 0.66928-0.21225 1.0176-0.29101 0.3483-0.0788 0.70591-0.13916 1.0723-0.17969 0.36636-0.0405 0.74049-0.0625 1.125-0.0625zm-68.773 98.982s-0.23187 0.94635-0.63672 2.5c-0.20243 0.77683-0.44679 1.7049-0.72852 2.7422-0.28172 1.0372-0.60085 2.1841-0.94726 3.3965s-0.7207 2.4908-1.1172 3.793c-0.19824 0.65106-0.40135 1.3073-0.60937 1.9648-0.20803 0.6575-0.42074 1.3155-0.63672 1.9688s-0.4361 1.303-0.65821 1.9414c-0.2221 0.6384-0.44741 1.2661-0.67382 1.8789s-0.45471 1.2105-0.6836 1.7871c-0.22888 0.57662-0.45796 1.1324-0.6875 1.6621-0.13125 0.30292-0.27225 0.60672-0.42187 0.91211-0.14963 0.30539-0.30742 0.6128-0.47461 0.91797-0.1672 0.30516-0.34337 0.60985-0.52735 0.91211-0.18397 0.30225-0.37622 0.60179-0.57617 0.89843-0.19995 0.29665-0.40791 0.58861-0.62304 0.87696-0.21514 0.28835-0.4365 0.57225-0.66602 0.84961s-0.46587 0.54882-0.70898 0.8125c-0.24311 0.26367-0.4941 0.52028-0.75 0.76758-0.25591 0.24729-0.51726 0.48465-0.78516 0.71289-0.2679 0.22823-0.54122 0.44782-0.82031 0.65429-0.2791 0.20647-0.56402 0.40002-0.85352 0.58203-0.2895 0.18202-0.58371 0.35099-0.88281 0.50586-0.14955 0.0774-0.30132 0.15251-0.45313 0.22266-0.1518 0.0701-0.30502 0.1367-0.45898 0.19922-0.15396 0.0625-0.30883 0.12123-0.46484 0.17578-0.15601 0.0546-0.31274 0.10414-0.47071 0.15039-0.15796 0.0462-0.31674 0.0893-0.47656 0.12695-0.15982 0.0376-0.32085 0.071-0.48242 0.0996s-0.3231 0.051-0.48633 0.0703-0.32741 0.0352-0.49219 0.0449c-0.21883 0.0129-0.43823 0.0134-0.6582 2e-3 -0.21998-0.0114-0.44028-0.0361-0.66016-0.0703s-0.43965-0.0792-0.6582-0.13477c-0.21855-0.0556-0.43637-0.1218-0.65234-0.19726-0.21598-0.0755-0.43041-0.16001-0.64258-0.25391s-0.42178-0.19577-0.62891-0.30664-0.41243-0.23103-0.61328-0.35742-0.39651-0.25994-0.58984-0.40039c-0.19334-0.14046-0.38378-0.2864-0.56836-0.43946-0.18459-0.15305-0.36447-0.31236-0.53906-0.47656-0.1746-0.1642-0.34444-0.33392-0.50782-0.50781-0.16337-0.17389-0.31979-0.35304-0.4707-0.53516s-0.29638-0.36775-0.43359-0.55664c-0.13722-0.18889-0.26639-0.38001-0.38868-0.57422-0.12228-0.1942-0.23763-0.39178-0.34375-0.58984-0.10611-0.19806-0.2023-0.3972-0.29101-0.59766-0.10393-0.23485-0.19881-0.47587-0.28321-0.7207s-0.15926-0.49284-0.2246-0.74609c-0.0653-0.25326-0.12119-0.51136-0.16797-0.77149-0.0468-0.26013-0.0846-0.52362-0.11328-0.78906-0.0287-0.26545-0.0475-0.53157-0.0586-0.80078s-0.0138-0.54108-8e-3 -0.8125c6e-3 -0.27142 0.0203-0.54238 0.043-0.81446 0.0226-0.27207 0.053-0.54522 0.0918-0.8164s0.0862-0.54182 0.14063-0.81055c0.0544-0.26873 0.11592-0.53605 0.18555-0.80078 0.0696-0.26473 0.14614-0.52598 0.23047-0.78516 0.0843-0.25917 0.17685-0.51551 0.27539-0.76757 0.0985-0.25206 0.20414-0.50075 0.3164-0.74414 0.11226-0.2434 0.23192-0.48167 0.35742-0.71485s0.25628-0.46023 0.39454-0.68164c0.13825-0.22141 0.28306-0.43645 0.43359-0.64453 0.26938-0.37238 0.54775-0.73672 0.83398-1.0938 0.28624-0.35703 0.58135-0.70691 0.88282-1.0488 0.30146-0.34191 0.60877-0.67686 0.92382-1.0039 0.31506-0.32705 0.63783-0.64658 0.96485-0.95899s0.65874-0.618 0.99609-0.91601c0.33735-0.29802 0.67934-0.58919 1.0254-0.87305s0.69571-0.56013 1.0488-0.83008 0.7098-0.53279 1.0684-0.78906c0.35856-0.25628 0.71966-0.50521 1.082-0.74805s0.72529-0.47934 1.0898-0.70898c0.36456-0.22965 0.73061-0.45323 1.0957-0.66992 0.3651-0.2167 0.72973-0.42689 1.0938-0.63086 0.36402-0.20398 0.72658-0.40225 1.0879-0.59375s0.72116-0.37543 1.0781-0.55469c0.35697-0.17927 0.71151-0.35227 1.0625-0.51953 0.351-0.16727 0.69958-0.32887 1.043-0.48438 0.68679-0.31102 1.3554-0.5998 2.002-0.86523 0.64659-0.26543 1.2699-0.50871 1.8633-0.73047 0.59335-0.22176 1.1585-0.42156 1.6855-0.60156 0.52707-0.18001 1.0171-0.3403 1.4648-0.48047 0.44774-0.14017 0.85166-0.26103 1.207-0.36328 0.35537-0.10226 0.66215-0.18571 0.91211-0.25196 0.49992-0.1325 0.77539-0.19336 0.77539-0.19336z"/>
   <path d="m640.58 938.16c-0.55874 1.7731 1.0577 4.1115 2.7671 4.8424 1.8877 0.80708 19.562 0.63644 20.292 0.23059 1.9756-1.0988 3.0603-2.5019 3.4588-4.7271 6.7086-37.456 18.773-104.86 27.671-119.1 5.0392-8.0636 14.012-15.954 23.52-16.026 6.8153-0.0516 10.194 6.5566 8.7624 11.76-8.9414 32.495-24.829 47.67-38.739 55.572-1.8436 1.0474-4.0197 2.3452-4.6118 4.3812-0.70802 2.4345 0.69456 5.1195 1.8447 7.3789 14.116 27.729 30.552 55.08 45.542 79.554 1.1807 1.9278 4.556 2.7898 6.8024 2.5365 4.3421-0.48964 27.046-7.2104 29.861-9.1083 1.8139-1.2228 3.499-5.401 1.7294-6.6871-16.793-12.204-51.058-47.824-61.683-65.833-0.85299-1.4459-1.9243-3.2532-1.3835-4.8424 0.70819-2.0812 3.398-2.8238 5.3036-3.92 16.474-9.4771 38.337-22.793 46.464-42.429 1.9554-4.7244 3.2178-10.348 3.366-15.907-0.41891-19.862-17.27-29.783-35.648-29.994-21.812-0.13298-38.126 13.322-51.652 33.68-4.8038 7.2301-32.651 115.42-33.666 118.64z"/>
   <path d="m785.91 770.26c0.46316-1.7922 1.7386-4.1425 3.5871-4.2394 10.139-0.531 22.21-0.64193 30.98-0.48916 2.5466 0.0444 5.1393 2.4516 5.8699 4.8916 1.0751 3.5907-1.1165 7.6873-3.261 10.761-9.5435 13.68-32.706 76.11-36.361 98.809-0.24438 1.5177-3.4443 4.3734-4.8916 4.8916-5.2443 1.8778-11.791 1.1678-16.142-0.65221-1.8653-0.78031-3.7856-2.8794-3.5871-4.8916 0.42784-4.3371 22.992-105.93 23.806-109.08z"/>
   <circle cx="767.86" cy="911.98" r="17.755" style="paint-order:stroke fill markers"/>
  </g>
 </g>
 <g transform="translate(-173.85 -46.75)">
  <path d="m563.69 64.303c-3.5169 0.06591-4.5802 2.5371-7.1089 4.0661-5.0845 3.0742-9.3661 12.406-11.832 18.162-2.3846 5.5663-4.3484 16.045-5.2891 19.887-1.9398 7.9217-2.4489 13.229-2.9785 21.914-0.45267 7.4236-1.3346 14.436-2.0371 21.891-0.0472 0.50063-0.0762 0.96489-0.11524 1.4531-0.85197-7e-3 -1.6771-0.0371-2.541-0.0371-4.8665 0-11.113-0.0203-15.76 0.73242-6.0055 0.97266-10.568 1.4949-16.031 3.6348-20.102 7.8731-35.865 23.305-42.354 43.773-2.1025 6.6322-0.9047 22.411-0.082 31.773-42.201 11.199-73.115 33.639-99.85 62.227-3.0196 3.5278-4.7404 8.8048-5.3281 14.24-28.609 35.739-45.758 81.051-45.758 130.39 0 26.399 5.2232 56.87 11.877 73.926 3.3321 8.5413 6.127 33.857 6.127 33.857-0.78353 12.257-10.043 20.672-4.1738 28.555 14.06 18.884 54.388 23.9 73.918 37.109 5.1884 3.5093 5.5894 16.551 13.107 18.184 12.184 2.6465 31.638-4.6826 40.311 0.2207 10.611 5.9996 13.622 11.442 25.098 26.795 4.044 5.4103 12.218 7.2207 16.283 7.6465 8.0329 0.84136 29.967-18.346 37.887-20.738 5.8169-1.7573 18.557 3.3061 32.141-1.7109 14.145-5.2244 29.301-20.799 43.463-27.986 14.666-7.4432 46.921-0.95137 62.502-6.6309 7.8835-2.8736 2.003-15.377 7.5977-21.451 8.1477-8.8465 30.753-4.4023 36.6-15.627 4.8951-9.3977-8.3658-34.477-4.125-43.779 12.271-26.916 19.096-56.875 19.096-88.369 0-45.235-14.43-87.076-38.869-121.27 0.30744-6.553-0.90221-13.843-3.7656-17.713-14.93-20.181-44.586-41.715-79.334-56.662 2.3563-7.6017 3.672-15.691 3.2051-23.867-1.3957-24.436-18.562-52.773-46.336-63.598-4.6617-1.8168-9.5061-2.7265-14.555-3.1914 2.0549-10.426 5.4926-21.224 7.8106-31.393 1.5616-6.8503 5.4069-15.635 8.9724-21.772 5.4177-9.3256 9.3709-15.495 10.621-17.59 1.3268-2.2231 4.2058-6.637 7.0504-10.52-4.9997-2.8024-9.5814-6.6392-15.443-6.5293z" fill="#972b4f" stroke="#972b4f" stroke-miterlimit="50" stroke-width="35" style="paint-order:stroke fill markers"/>
  <g stroke-linejoin="bevel">
   <path d="m724.34 438.41c0 31.494-6.8248 61.454-19.095 88.371-4.2408 9.3026 9.0192 34.381 4.1241 43.779-5.8468 11.225-28.451 6.7806-36.599 15.627-5.5946 6.0744 0.28661 18.577-7.5969 21.45-15.581 5.6795-47.836-0.81147-62.503 6.6317-14.162 7.1872-29.318 22.762-43.463 27.986-13.584 5.017-26.324-0.0456-32.141 1.7117-7.9202 2.3926-29.854 21.579-37.887 20.738-4.0656-0.42582-12.238-2.2363-16.282-7.6466-11.476-15.353-14.486-20.795-25.098-26.795-8.6722-4.9033-28.127 2.4255-40.311-0.22095-7.518-1.633-7.9185-14.675-13.107-18.184-19.53-13.21-59.859-18.224-73.919-37.108-5.8688-7.8828 3.3899-16.299 4.1734-28.556 0 0-2.7936-25.315-6.1257-33.857-6.6538-17.056-11.878-47.528-11.878-73.927 0-115.35 93.507-208.85 208.85-208.85s208.85 93.507 208.85 208.85z" fill="#f6fafb" stroke-width="5" style="paint-order:stroke fill markers"/>
   <path d="m357.72 293.78c-7.6129 8.8939-7.2881 28.897-0.0792 34.565 11.919 9.3717 18.487-0.46519 21.008 2.6006 2.4826 3.0184-4.0112 27.089-2.1649 34.22 2.5287 9.7671 8.3839 19.189 20.761 17.608 29.508-3.7691 34.134-36.749 70.478-35.143 5.6605 0.25017 26.701 4.8988 27.357 15.06 0.99839 15.464 16.802 40.104 36.833 35.918 32.579-6.8079 24.275-45.52 29.89-46.956 3.2269-0.82497 16.059 24.883 34.556 23.593 18.667-1.3024 18.623-21.577 25.901-22.221 11.583-1.025 0.40529 50.879 38.74 46.52 40.028-4.5518 8.3342-69.27 17.965-69.055 7.6899 0.17094 8.7331-22.962 2.7413-31.061-25.768-34.83-95.298-73.835-159.42-75.7-78.164 0-125.76 28.558-164.57 70.053z" color="#000000" fill="#f5bac7" style="-inkscape-stroke:none;paint-order:stroke fill markers"/>
   <path d="m583.95 276.12c-13.975 15.266-31.709 22.596-54.356 22.596-30.093 0-53.183-15.506-65.606-40.163-4.9744-9.8737-5.2543-13.852-6.3001-25.547-0.81526-9.1162-2.2388-26.278-0.0373-33.223 6.489-20.469 22.252-35.9 42.353-43.773 5.4635-2.1399 10.025-2.6616 16.03-3.6342 4.6472-0.75268 10.895-0.7331 15.761-0.7331 9.8705 0 18.951 0.34961 27.446 3.6602 27.774 10.824 44.939 39.163 46.335 63.599 1.2906 22.596-10.912 44.58-21.626 57.218z" fill="#eb3d53" style="paint-order:stroke fill markers"/>
  </g>
  <ellipse cx="384.8" cy="475.13" rx="44.322" ry="31.958" fill="#f5bac7" style="paint-order:stroke fill markers"/>
  <ellipse cx="653.61" cy="475.13" rx="44.322" ry="31.958" fill="#f5bac7" style="paint-order:stroke fill markers"/>
  <g fill="#6a1d34">
   <circle cx="453.35" cy="416.22" r="9" style="paint-order:stroke fill markers"/>
   <rect x="444.35" y="416.22" width="18" height="27" style="paint-order:stroke fill markers"/>
   <circle cx="453.35" cy="443.22" r="9" style="paint-order:stroke fill markers"/>
   <g transform="translate(137.62)">
    <circle cx="453.35" cy="416.22" r="9" style="paint-order:stroke fill markers"/>
    <rect x="444.35" y="416.22" width="18" height="27" style="paint-order:stroke fill markers"/>
    <circle cx="453.35" cy="443.22" r="9" style="paint-order:stroke fill markers"/>
   </g>
   <g transform="translate(5.791e-5 -49.441)">
    <path transform="translate(-5.791e-5 49.441)" d="m503.09 463.47c-3.0376 0-5.5 2.4624-5.5 5.5v3.3803c0 8.7442 4.6773 16.845 12.25 21.217 7.5727 4.3721 16.927 4.3721 24.5 0 7.5727-4.3721 12.25-12.473 12.25-21.217v-3.3803c0-3.0376-2.4624-5.5-5.5-5.5s-5.5 2.4624-5.5 5.5v3.3803c0 4.8319-2.5655 9.2754-6.75 11.691-4.1846 2.416-9.3155 2.416-13.5 0-4.1846-2.416-6.75-6.8595-6.75-11.691v-3.3803c0-3.0376-2.4624-5.5-5.5-5.5z" color="#000000" fill="#6a1d34" stroke-linecap="square" stroke-linejoin="round" style="-inkscape-stroke:none;paint-order:stroke fill markers"/>
   </g>
  </g>
  <path d="m540.27 164.19c7.783-1.1384 18.767-3.0758 23.072 2.2012 0.92654 1.1357-0.0642 3.0622-0.81525 4.3209-1.3266 2.2232-3.8182 3.5508-6.0329 4.8916-2.4054 1.4562-4.9709 3.8019-7.745 3.3426-5.7134-0.94599-13.235-5.8779-12.881-11.658 0.10975-1.791 2.6269-2.8383 4.4024-3.098z" fill="#f6bfc9"/>
  <path d="m489.66 169.94c4.6759-2.6116 9.0867-2.2476 12.798 1.6141 3.1083 3.2345 2.6969 9.3964 0.23059 13.144-2.7727 4.2128-10.442 3.1297-13.49 7.1483-0.95743 1.2626-2.0159 2.5375-1.4988 4.0353 0.57192 1.6568 4.9364 3.26 6.6871 3.3436 9.0963 0.43437 15.984-0.21396 24.776 1.3516 4.485 0.79864 10.288 0.68634 13.783 3.0773 3.9926 2.7313 5.7458 7.786 4.2042 13.777-1.6153 6.2772-8.7468 10.785-15.207 11.31-10.104 0.81991-18.39-3.7784-28.258-8.7412-6.0675-3.0515-14.454-5.2369-19.128-9.3601-2.0415-1.8007-3.556-4.3766-4.1506-7.033-0.72504-3.2392-0.47234-5.308 0.69177-8.4165 1.4368-3.8368 5.2959-8.856 7.5804-12.429 2.5209-3.9427 7.0351-10.616 10.982-12.821z" fill="#f6bfc9"/>
  <path d="m541.89 167.87c0.44451 2.3676 3.5911 3.9544 2.7671 5.9953-1.1116 2.753-5.3661 3.675-8.3012 3.2282-3.3525-0.51025-7.3365-3.007-7.9554-6.3412-0.37411-2.0155 2.1573-3.4403 3.113-5.3036 2.5478-4.9677 2.4182-9.6947 2.9395-15.226 0.70256-7.4551 1.5837-14.467 2.0364-21.891 0.52959-8.685 1.0396-13.993 2.9794-21.914 0.94064-3.8414 2.9035-14.32 5.2881-19.887 2.4659-5.7561 6.7488-15.086 11.833-18.161 6.7432-4.0772 20.453-3.2606 22.713 4.093 0.74251 2.4159-4.0921 3.0804-5.4189 5.3036-1.2498 2.0942-7.9751 12.013-13.393 21.338-3.5655 6.1374-6.4329 14.759-7.9944 21.609-2.606 11.432-6.6383 23.665-8.516 35.264-0.67791 4.1877-2.8798 7.6911-2.0912 11.891z" fill="#c73446"/>
 </g>
 <g transform="translate(-173.85 -46.75)">
  <path d="m440 256.26c0.13958-3.6735-2.7644-6.3513-6.3987-6.9041l-15.851-2.4114c-3.6343-0.55286-6.7646 2.7252-6.9042 6.3986-0.1396 3.6735 2.6013 5.6176 6.2356 6.1704l15.851 2.4114c3.6343 0.55286 6.9276-1.9915 7.0672-5.6649z" fill="#eb3d53" style="paint-order:stroke fill markers"/>
  <path d="m617.15 298.57c-1.084-3.7743-4.9131-5.453-8.7967-4.8714-7.1526 1.0712-12.307 2.8086-16.705 4.7977-3.5781 1.618-5.9553 5.0224-4.8714 8.7967s5.118 6.2452 8.7967 4.8714c5.4389-2.0312 10.822-4.2468 16.705-4.7977 3.9098-0.36612 5.9553-5.0224 4.8714-8.7967z" fill="#eb3d53" style="paint-order:stroke fill markers"/>
  <path d="m618.19 269.86c-1.9737 3.1014-1.1995 7.455 2.0418 9.1892l13.957 7.4674c3.2414 1.7342 7.2155 1.0595 9.1892-2.0418 1.9737-3.1014 1.1995-7.455-2.0418-9.1892l-13.957-7.4674c-3.2414-1.7342-7.2155-1.0595-9.1892 2.0418z" fill="#0fb0ce" style="paint-order:stroke fill markers"/>
  <path d="m635.6 302.31c-1.2297 3.5308 0.51777 7.4064 4.1089 8.4467 5.5636 1.6117 6.8465 2.6471 11.65 4.6932 3.4398 1.4652 6.9864-0.11692 8.2161-3.6477s-0.84577-6.407-4.0513-8.3314c-4.5301-2.7196-6.1837-3.2216-11.65-4.6932-3.6103-0.9719-7.0441 2e-3 -8.2737 3.5325z" fill="#eb3d53" style="paint-order:stroke fill markers"/>
  <path d="m595.94 258.5c0.80052 3.5879 4.3476 5.7995 7.9459 5.047l13.434-2.8093c3.5983-0.75246 5.8475-4.358 5.047-7.9459-0.80049-3.5879-4.3476-5.7995-7.9459-5.047l-13.434 2.8094c-3.5983 0.75246-5.8475 4.358-5.047 7.9459z" fill="#feda02" style="paint-order:stroke fill markers"/>
  <path d="m557.09 283.22c-0.13857 3.6735 2.7254 6.8186 6.4005 6.9024l19.314 0.44041c3.6752 0.0838 6.7638-2.727 6.9024-6.4005 0.1386-3.6735-2.7254-6.8186-6.4005-6.9024l-19.314-0.4404c-3.6752-0.0838-6.7638 2.727-6.9024 6.4005z" fill="#0fb0ce" style="paint-order:stroke fill markers"/>
  <path d="m592.7 334.38c-3.5981 0.75339-6.7631 4.5754-5.1508 7.879 2.0563 4.2134 3.8477 9.7615 3.3346 15.925-0.30502 3.6634 4.2809 5.9042 7.879 5.1508 3.5981-0.75337 4.7025-4.2304 5.1508-7.879 0.7037-5.7273-1.2714-10.836-3.3346-15.925-1.3812-3.4068-4.281-5.9042-7.879-5.1508z" fill="#0fb0ce" style="paint-order:stroke fill markers"/>
  <g fill="#feda02">
   <path d="m537.37 362.71a6.6562 6.6562 0 0 0 6.869 6.4364l16.262-0.52872a6.6562 6.6562 0 0 0 6.4364-6.8689 6.6562 6.6562 0 0 0-6.869-6.4364l-16.262 0.52872a6.6562 6.6562 0 0 0-6.4364 6.869z" style="paint-order:stroke fill markers"/>
   <path d="m535.68 291.92c-1.0985 3.5082 0.87108 7.1925 4.3632 8.341l18.813 6.1877c3.4921 1.1486 7.2426-0.85496 8.341-4.3631 1.0985-3.5082-0.87106-7.1925-4.3632-8.341l-18.813-6.1877c-3.4921-1.1486-7.2426 0.85498-8.341 4.3632z" style="paint-order:stroke fill markers"/>
   <path d="m564.02 308.25a6.6562 6.6562 0 0 0-4.3105 8.3684l4.9597 15.496a6.6562 6.6562 0 0 0 8.3684 4.3105 6.6562 6.6562 0 0 0 4.3105-8.3684l-4.9597-15.496a6.6562 6.6562 0 0 0-8.3684-4.3105z" style="paint-order:stroke fill markers"/>
  </g>
  <path d="m522.25 315.48a6.6562 6.6562 0 0 0-9.359-1.0093l-12.672 10.205a6.6562 6.6562 0 0 0-1.0093 9.359 6.6562 6.6562 0 0 0 9.359 1.0093l12.672-10.205a6.6562 6.6562 0 0 0 1.0093-9.359z" fill="#0fb0ce" style="paint-order:stroke fill markers"/>
  <path d="m494.32 282.72a6.6562 6.6562 0 0 0-8.4509 4.1464l-5.261 15.397a6.6562 6.6562 0 0 0 4.1464 8.4509 6.6562 6.6562 0 0 0 8.4509-4.1464l5.261-15.397a6.6562 6.6562 0 0 0-4.1464-8.4509z" fill="#feda02" style="paint-order:stroke fill markers"/>
  <path d="m497.18 279.59c-0.42602-3.6514-3.7151-6.0899-7.3827-5.84-5.4931 0.37441-10.979 0.84112-16.365 2.497-3.5138 1.0803-6.266 3.7314-5.84 7.3827 0.42602 3.6514 3.787 6.6045 7.3828 5.84 5.3263-1.1325 10.715-2.1187 16.365-2.4971 3.6679-0.24566 6.266-3.7314 5.84-7.3827z" fill="#0fb0ce" style="paint-order:stroke fill markers"/>
  <path d="m447.39 260.14c-1.2276-3.4651-5.0915-5.4358-8.4969-4.0513l-17.375 7.064c-3.4054 1.3845-5.2789 5.0318-4.0513 8.4969 1.2276 3.4651 5.0915 5.4358 8.4969 4.0513l17.375-7.064c3.4054-1.3845 5.2789-5.0318 4.0513-8.4969z" fill="#feda02" style="paint-order:stroke fill markers"/>
  <path d="m460.03 302.19c0.66749-3.615-2.0716-6.0657-5.337-7.7542-4.3752-2.2624-11.164-3.9579-17.384-3.7614-3.6743 0.11608-7.0867 1.7219-7.7542 5.3369-0.66751 3.615 1.6662 7.9527 5.337 7.7542 6.0842-0.32902 12.515 1.964 17.384 3.7614 3.4486 1.2731 7.0867-1.7219 7.7542-5.3369z" fill="#eb3d53" style="paint-order:stroke fill markers"/>
  <path d="m406.99 275.98c-3.676 0.0293-6.6423 3.0331-6.603 6.709l0.12966 12.12c0.0393 3.6759 3.033 6.6322 6.709 6.603 3.676-0.0293 6.6423-3.0331 6.603-6.709l-0.12965-12.12c-0.0393-3.6759-3.033-6.6322-6.709-6.6029z" fill="#0fb0ce" style="paint-order:stroke fill markers"/>
  <path d="m450.08 315.89a6.6562 6.6562 0 0 0-8.6559 3.6993l-6.0581 15.101a6.6562 6.6562 0 0 0 3.6992 8.6559 6.6562 6.6562 0 0 0 8.656-3.6993l6.0581-15.101a6.6562 6.6562 0 0 0-3.6993-8.6559z" fill="#feda02" style="paint-order:stroke fill markers"/>
  <path d="m473.12 325.48a6.6562 6.6562 0 0 0-5.2708 7.7993l3.0904 15.974a6.6562 6.6562 0 0 0 7.7993 5.2708 6.6562 6.6562 0 0 0 5.2708-7.7993l-3.0904-15.974a6.6562 6.6562 0 0 0-7.7993-5.2708z" fill="#eb3d53" style="paint-order:stroke fill markers"/>
  <path d="m597.58 270.38a7.1103 7.1103 0 0 0 1.2275 9.9803l13.698 10.698a7.1103 7.1103 0 0 0 9.9803-1.2274 7.1103 7.1103 0 0 0-1.2274-9.9803l-13.698-10.698a7.1103 7.1103 0 0 0-9.9803 1.2275z" fill="#feda02" style="paint-order:stroke fill markers"/>
 </g>
</svg>
